<svg xmlns="http://www.w3.org/2000/svg" width="16" height="16" viewBox="0 0 16 16" fill="none">
  <path d="M11.5999 14.6667C8.87811 14.6631 6.2688 13.5803 4.34419 11.6557C2.41958 9.73112 1.33678 7.1218 1.33325 4.39999C1.33325 3.58666 1.65635 2.80665 2.23146 2.23153C2.80657 1.65642 3.58659 1.33333 4.39992 1.33333C4.57215 1.33202 4.74408 1.34765 4.91325 1.37999C5.07679 1.4042 5.23756 1.44439 5.39325 1.49999C5.50275 1.53841 5.60032 1.60475 5.67632 1.69244C5.75233 1.78014 5.80412 1.88615 5.82659 1.99999L6.73992 5.99999C6.76454 6.10857 6.76157 6.22158 6.73129 6.32872C6.70102 6.43585 6.64439 6.5337 6.56659 6.61333C6.47992 6.70666 6.47325 6.71333 5.65325 7.13999C6.30991 8.58057 7.46205 9.73743 8.89992 10.4C9.33325 9.57333 9.33992 9.56666 9.43325 9.47999C9.51288 9.40219 9.61073 9.34556 9.71786 9.31528C9.825 9.28501 9.93801 9.28204 10.0466 9.30666L14.0466 10.22C14.1568 10.2456 14.2587 10.2988 14.3426 10.3746C14.4266 10.4504 14.4899 10.5463 14.5266 10.6533C14.5829 10.8116 14.6252 10.9744 14.6533 11.14C14.6801 11.3075 14.6935 11.477 14.6933 11.6467C14.681 12.4565 14.3488 13.2286 13.7692 13.7944C13.1897 14.3602 12.4098 14.6738 11.5999 14.6667ZM4.39992 2.66666C3.94075 2.66842 3.50089 2.8516 3.17621 3.17628C2.85152 3.50097 2.66834 3.94083 2.66659 4.39999C2.66835 6.76872 3.61011 9.03992 5.28505 10.7149C6.95999 12.3898 9.23119 13.3316 11.5999 13.3333C12.0591 13.3316 12.4989 13.1484 12.8236 12.8237C13.1483 12.499 13.3315 12.0592 13.3333 11.6V11.38L10.2399 10.6667L10.0466 11.0333C9.74658 11.6133 9.52659 12.0333 8.96659 11.8067C7.86184 11.4112 6.85905 10.7747 6.03108 9.94325C5.2031 9.11181 4.57073 8.10638 4.17992 6.99999C3.93992 6.47999 4.39325 6.23999 4.96659 5.93999L5.33325 5.75999L4.61992 2.66666H4.39992Z" fill="#969696"/>
</svg>